<mxfile host="Electron" modified="2024-09-22T14:58:13.678Z" agent="Mozilla/5.0 (Windows NT 10.0; Win64; x64) AppleWebKit/537.36 (KHTML, like Gecko) draw.io/24.6.1 Chrome/124.0.6367.207 Electron/30.0.6 Safari/537.36" etag="xbMMfLueIo6HxeXhdJaV" version="24.6.1" type="device">
  <diagram name="Page-1" id="oM3AZS54kbIPjRz8Dl3b">
    <mxGraphModel dx="1674" dy="836" grid="1" gridSize="10" guides="1" tooltips="1" connect="1" arrows="1" fold="1" page="1" pageScale="1" pageWidth="850" pageHeight="1100" math="0" shadow="0">
      <root>
        <mxCell id="0" />
        <mxCell id="1" parent="0" />
        <mxCell id="LtDJ-uMKenuFt8M6Bwa6-2" style="edgeStyle=orthogonalEdgeStyle;rounded=0;orthogonalLoop=1;jettySize=auto;html=1;exitX=0.5;exitY=1;exitDx=0;exitDy=0;entryX=1;entryY=0.25;entryDx=0;entryDy=0;" edge="1" parent="1" source="LtDJ-uMKenuFt8M6Bwa6-3" target="LtDJ-uMKenuFt8M6Bwa6-8">
          <mxGeometry relative="1" as="geometry" />
        </mxCell>
        <mxCell id="LtDJ-uMKenuFt8M6Bwa6-3" value="MicroSD Card &amp;amp; module" style="rounded=0;whiteSpace=wrap;html=1;" vertex="1" parent="1">
          <mxGeometry x="480" y="150" width="80" height="40" as="geometry" />
        </mxCell>
        <mxCell id="LtDJ-uMKenuFt8M6Bwa6-5" style="edgeStyle=orthogonalEdgeStyle;rounded=0;orthogonalLoop=1;jettySize=auto;html=1;entryX=0.5;entryY=1;entryDx=0;entryDy=0;" edge="1" parent="1" source="LtDJ-uMKenuFt8M6Bwa6-8" target="LtDJ-uMKenuFt8M6Bwa6-32">
          <mxGeometry relative="1" as="geometry" />
        </mxCell>
        <mxCell id="LtDJ-uMKenuFt8M6Bwa6-6" style="edgeStyle=orthogonalEdgeStyle;rounded=0;orthogonalLoop=1;jettySize=auto;html=1;exitX=0.75;exitY=0;exitDx=0;exitDy=0;entryX=0.5;entryY=1;entryDx=0;entryDy=0;" edge="1" parent="1" source="LtDJ-uMKenuFt8M6Bwa6-8" target="LtDJ-uMKenuFt8M6Bwa6-35">
          <mxGeometry relative="1" as="geometry" />
        </mxCell>
        <mxCell id="LtDJ-uMKenuFt8M6Bwa6-7" style="edgeStyle=orthogonalEdgeStyle;rounded=0;orthogonalLoop=1;jettySize=auto;html=1;exitX=0.25;exitY=0;exitDx=0;exitDy=0;entryX=0.5;entryY=1;entryDx=0;entryDy=0;" edge="1" parent="1" source="LtDJ-uMKenuFt8M6Bwa6-8" target="LtDJ-uMKenuFt8M6Bwa6-25">
          <mxGeometry relative="1" as="geometry" />
        </mxCell>
        <mxCell id="LtDJ-uMKenuFt8M6Bwa6-8" value="ESP 32" style="rounded=0;whiteSpace=wrap;html=1;fillColor=#FFE6CC;" vertex="1" parent="1">
          <mxGeometry x="360" y="200" width="80" height="40" as="geometry" />
        </mxCell>
        <mxCell id="LtDJ-uMKenuFt8M6Bwa6-9" value="ESP 32" style="rounded=0;whiteSpace=wrap;html=1;fillColor=#FFE6CC;" vertex="1" parent="1">
          <mxGeometry x="480" y="340" width="80" height="40" as="geometry" />
        </mxCell>
        <mxCell id="LtDJ-uMKenuFt8M6Bwa6-10" value="ESP 32" style="rounded=0;whiteSpace=wrap;html=1;fillColor=#FFE6CC;" vertex="1" parent="1">
          <mxGeometry x="240" y="340" width="80" height="40" as="geometry" />
        </mxCell>
        <mxCell id="LtDJ-uMKenuFt8M6Bwa6-13" style="edgeStyle=orthogonalEdgeStyle;rounded=0;orthogonalLoop=1;jettySize=auto;html=1;entryX=1;entryY=0.75;entryDx=0;entryDy=0;" edge="1" parent="1" source="LtDJ-uMKenuFt8M6Bwa6-46" target="LtDJ-uMKenuFt8M6Bwa6-9">
          <mxGeometry relative="1" as="geometry" />
        </mxCell>
        <mxCell id="LtDJ-uMKenuFt8M6Bwa6-14" style="edgeStyle=orthogonalEdgeStyle;rounded=0;orthogonalLoop=1;jettySize=auto;html=1;exitX=1;exitY=0.5;exitDx=0;exitDy=0;entryX=0;entryY=0.75;entryDx=0;entryDy=0;" edge="1" parent="1" source="LtDJ-uMKenuFt8M6Bwa6-15" target="LtDJ-uMKenuFt8M6Bwa6-10">
          <mxGeometry relative="1" as="geometry" />
        </mxCell>
        <mxCell id="LtDJ-uMKenuFt8M6Bwa6-15" value="MicroSD Card &amp;amp; module" style="rounded=0;whiteSpace=wrap;html=1;" vertex="1" parent="1">
          <mxGeometry x="120" y="370" width="80" height="40" as="geometry" />
        </mxCell>
        <mxCell id="LtDJ-uMKenuFt8M6Bwa6-16" style="edgeStyle=orthogonalEdgeStyle;rounded=0;orthogonalLoop=1;jettySize=auto;html=1;entryX=0;entryY=0.5;entryDx=0;entryDy=0;" edge="1" parent="1" source="LtDJ-uMKenuFt8M6Bwa6-17" target="LtDJ-uMKenuFt8M6Bwa6-8">
          <mxGeometry relative="1" as="geometry">
            <Array as="points">
              <mxPoint x="280" y="220" />
            </Array>
          </mxGeometry>
        </mxCell>
        <mxCell id="LtDJ-uMKenuFt8M6Bwa6-17" value="Accelerometer" style="rounded=0;whiteSpace=wrap;html=1;" vertex="1" parent="1">
          <mxGeometry x="240" y="150" width="80" height="40" as="geometry" />
        </mxCell>
        <mxCell id="LtDJ-uMKenuFt8M6Bwa6-20" style="edgeStyle=orthogonalEdgeStyle;rounded=0;orthogonalLoop=1;jettySize=auto;html=1;entryX=1;entryY=0.25;entryDx=0;entryDy=0;" edge="1" parent="1" source="LtDJ-uMKenuFt8M6Bwa6-21" target="LtDJ-uMKenuFt8M6Bwa6-9">
          <mxGeometry relative="1" as="geometry" />
        </mxCell>
        <mxCell id="LtDJ-uMKenuFt8M6Bwa6-21" value="Accelerometer" style="rounded=0;whiteSpace=wrap;html=1;" vertex="1" parent="1">
          <mxGeometry x="600" y="310" width="80" height="40" as="geometry" />
        </mxCell>
        <mxCell id="LtDJ-uMKenuFt8M6Bwa6-22" style="edgeStyle=orthogonalEdgeStyle;rounded=0;orthogonalLoop=1;jettySize=auto;html=1;exitX=1;exitY=0.5;exitDx=0;exitDy=0;entryX=0;entryY=0.25;entryDx=0;entryDy=0;" edge="1" parent="1" source="LtDJ-uMKenuFt8M6Bwa6-23" target="LtDJ-uMKenuFt8M6Bwa6-10">
          <mxGeometry relative="1" as="geometry" />
        </mxCell>
        <mxCell id="LtDJ-uMKenuFt8M6Bwa6-23" value="Accelerometer" style="rounded=0;whiteSpace=wrap;html=1;" vertex="1" parent="1">
          <mxGeometry x="120" y="310" width="80" height="40" as="geometry" />
        </mxCell>
        <mxCell id="LtDJ-uMKenuFt8M6Bwa6-24" style="edgeStyle=orthogonalEdgeStyle;rounded=0;orthogonalLoop=1;jettySize=auto;html=1;entryX=0.5;entryY=1;entryDx=0;entryDy=0;" edge="1" parent="1" source="LtDJ-uMKenuFt8M6Bwa6-47" target="LtDJ-uMKenuFt8M6Bwa6-9">
          <mxGeometry relative="1" as="geometry">
            <Array as="points">
              <mxPoint x="520" y="440" />
            </Array>
          </mxGeometry>
        </mxCell>
        <mxCell id="LtDJ-uMKenuFt8M6Bwa6-25" value="Speaker" style="rounded=0;whiteSpace=wrap;html=1;" vertex="1" parent="1">
          <mxGeometry x="300" y="100" width="80" height="40" as="geometry" />
        </mxCell>
        <mxCell id="LtDJ-uMKenuFt8M6Bwa6-28" style="edgeStyle=orthogonalEdgeStyle;rounded=0;orthogonalLoop=1;jettySize=auto;html=1;entryX=0.5;entryY=0;entryDx=0;entryDy=0;" edge="1" parent="1" source="LtDJ-uMKenuFt8M6Bwa6-29" target="LtDJ-uMKenuFt8M6Bwa6-9">
          <mxGeometry relative="1" as="geometry">
            <Array as="points">
              <mxPoint x="520" y="280" />
            </Array>
          </mxGeometry>
        </mxCell>
        <mxCell id="LtDJ-uMKenuFt8M6Bwa6-29" value="Lithium Battery" style="rounded=0;whiteSpace=wrap;html=1;" vertex="1" parent="1">
          <mxGeometry x="560" y="260" width="80" height="40" as="geometry" />
        </mxCell>
        <mxCell id="LtDJ-uMKenuFt8M6Bwa6-30" style="edgeStyle=orthogonalEdgeStyle;rounded=0;orthogonalLoop=1;jettySize=auto;html=1;exitX=1;exitY=0.5;exitDx=0;exitDy=0;entryX=0.5;entryY=0;entryDx=0;entryDy=0;" edge="1" parent="1" source="LtDJ-uMKenuFt8M6Bwa6-31" target="LtDJ-uMKenuFt8M6Bwa6-10">
          <mxGeometry relative="1" as="geometry" />
        </mxCell>
        <mxCell id="LtDJ-uMKenuFt8M6Bwa6-31" value="Lithium Battery" style="rounded=0;whiteSpace=wrap;html=1;" vertex="1" parent="1">
          <mxGeometry x="160" y="260" width="80" height="40" as="geometry" />
        </mxCell>
        <mxCell id="LtDJ-uMKenuFt8M6Bwa6-32" value="Vibration motor" style="rounded=0;whiteSpace=wrap;html=1;" vertex="1" parent="1">
          <mxGeometry x="360" y="50" width="80" height="40" as="geometry" />
        </mxCell>
        <mxCell id="LtDJ-uMKenuFt8M6Bwa6-35" value="OLED screen" style="rounded=0;whiteSpace=wrap;html=1;" vertex="1" parent="1">
          <mxGeometry x="420" y="100" width="80" height="40" as="geometry" />
        </mxCell>
        <mxCell id="LtDJ-uMKenuFt8M6Bwa6-36" style="edgeStyle=orthogonalEdgeStyle;rounded=0;orthogonalLoop=1;jettySize=auto;html=1;exitX=1;exitY=0.5;exitDx=0;exitDy=0;entryX=0.5;entryY=1;entryDx=0;entryDy=0;" edge="1" parent="1" source="LtDJ-uMKenuFt8M6Bwa6-37" target="LtDJ-uMKenuFt8M6Bwa6-10">
          <mxGeometry relative="1" as="geometry" />
        </mxCell>
        <mxCell id="LtDJ-uMKenuFt8M6Bwa6-37" value="Pressure Sensor" style="rounded=0;whiteSpace=wrap;html=1;" vertex="1" parent="1">
          <mxGeometry x="160" y="420" width="80" height="40" as="geometry" />
        </mxCell>
        <mxCell id="LtDJ-uMKenuFt8M6Bwa6-43" value="Armband" style="swimlane;whiteSpace=wrap;html=1;" vertex="1" parent="1">
          <mxGeometry x="220" y="20" width="360" height="230" as="geometry">
            <mxRectangle x="220" y="20" width="90" height="30" as="alternateBounds" />
          </mxGeometry>
        </mxCell>
        <mxCell id="LtDJ-uMKenuFt8M6Bwa6-44" value="Smart Ball 1" style="swimlane;horizontal=0;whiteSpace=wrap;html=1;" vertex="1" parent="1">
          <mxGeometry x="80" y="250" width="260" height="220" as="geometry" />
        </mxCell>
        <mxCell id="LtDJ-uMKenuFt8M6Bwa6-45" value="Smart Ball 2" style="swimlane;horizontal=0;whiteSpace=wrap;html=1;rotation=-180;" vertex="1" parent="1">
          <mxGeometry x="460" y="250" width="260" height="220" as="geometry" />
        </mxCell>
        <mxCell id="LtDJ-uMKenuFt8M6Bwa6-46" value="MicroSD Card &amp;amp; module" style="rounded=0;whiteSpace=wrap;html=1;" vertex="1" parent="LtDJ-uMKenuFt8M6Bwa6-45">
          <mxGeometry x="140" y="110" width="80" height="40" as="geometry" />
        </mxCell>
        <mxCell id="LtDJ-uMKenuFt8M6Bwa6-47" value="Pressure Sensor" style="rounded=0;whiteSpace=wrap;html=1;" vertex="1" parent="LtDJ-uMKenuFt8M6Bwa6-45">
          <mxGeometry x="100" y="160" width="80" height="40" as="geometry" />
        </mxCell>
        <mxCell id="LtDJ-uMKenuFt8M6Bwa6-48" value="Trolley" style="swimlane;whiteSpace=wrap;html=1;rotation=-180;" vertex="1" parent="1">
          <mxGeometry x="230" y="470" width="330" height="170" as="geometry" />
        </mxCell>
        <mxCell id="LtDJ-uMKenuFt8M6Bwa6-27" value="Lithium Battery" style="rounded=0;whiteSpace=wrap;html=1;" vertex="1" parent="LtDJ-uMKenuFt8M6Bwa6-48">
          <mxGeometry x="20" y="20" width="80" height="40" as="geometry" />
        </mxCell>
        <mxCell id="LtDJ-uMKenuFt8M6Bwa6-19" value="Accelerometer" style="rounded=0;whiteSpace=wrap;html=1;" vertex="1" parent="LtDJ-uMKenuFt8M6Bwa6-48">
          <mxGeometry x="240" y="20" width="80" height="40" as="geometry" />
        </mxCell>
        <mxCell id="LtDJ-uMKenuFt8M6Bwa6-4" value="ESP 32" style="rounded=0;whiteSpace=wrap;html=1;fillColor=#FFE6CC;" vertex="1" parent="LtDJ-uMKenuFt8M6Bwa6-48">
          <mxGeometry x="130" y="20" width="80" height="40" as="geometry" />
        </mxCell>
        <mxCell id="LtDJ-uMKenuFt8M6Bwa6-18" style="edgeStyle=orthogonalEdgeStyle;rounded=0;orthogonalLoop=1;jettySize=auto;html=1;entryX=1;entryY=0.5;entryDx=0;entryDy=0;" edge="1" parent="LtDJ-uMKenuFt8M6Bwa6-48" source="LtDJ-uMKenuFt8M6Bwa6-19" target="LtDJ-uMKenuFt8M6Bwa6-4">
          <mxGeometry relative="1" as="geometry" />
        </mxCell>
        <mxCell id="LtDJ-uMKenuFt8M6Bwa6-26" style="edgeStyle=orthogonalEdgeStyle;rounded=0;orthogonalLoop=1;jettySize=auto;html=1;entryX=0;entryY=0.5;entryDx=0;entryDy=0;" edge="1" parent="LtDJ-uMKenuFt8M6Bwa6-48" source="LtDJ-uMKenuFt8M6Bwa6-27" target="LtDJ-uMKenuFt8M6Bwa6-4">
          <mxGeometry relative="1" as="geometry" />
        </mxCell>
        <mxCell id="LtDJ-uMKenuFt8M6Bwa6-12" value="MicroSD Card &amp;amp; module" style="rounded=0;whiteSpace=wrap;html=1;" vertex="1" parent="LtDJ-uMKenuFt8M6Bwa6-48">
          <mxGeometry x="70" y="100" width="80" height="40" as="geometry" />
        </mxCell>
        <mxCell id="LtDJ-uMKenuFt8M6Bwa6-11" style="edgeStyle=orthogonalEdgeStyle;rounded=0;orthogonalLoop=1;jettySize=auto;html=1;entryX=0.25;entryY=1;entryDx=0;entryDy=0;" edge="1" parent="LtDJ-uMKenuFt8M6Bwa6-48" source="LtDJ-uMKenuFt8M6Bwa6-12" target="LtDJ-uMKenuFt8M6Bwa6-4">
          <mxGeometry relative="1" as="geometry" />
        </mxCell>
        <mxCell id="LtDJ-uMKenuFt8M6Bwa6-34" value="Ultrasonic Sensor" style="rounded=0;whiteSpace=wrap;html=1;" vertex="1" parent="LtDJ-uMKenuFt8M6Bwa6-48">
          <mxGeometry x="195" y="100" width="80" height="40" as="geometry" />
        </mxCell>
        <mxCell id="LtDJ-uMKenuFt8M6Bwa6-33" style="edgeStyle=orthogonalEdgeStyle;rounded=0;orthogonalLoop=1;jettySize=auto;html=1;entryX=0.75;entryY=1;entryDx=0;entryDy=0;" edge="1" parent="LtDJ-uMKenuFt8M6Bwa6-48" source="LtDJ-uMKenuFt8M6Bwa6-34" target="LtDJ-uMKenuFt8M6Bwa6-4">
          <mxGeometry relative="1" as="geometry" />
        </mxCell>
        <mxCell id="LtDJ-uMKenuFt8M6Bwa6-49" value="" style="endArrow=classic;startArrow=classic;html=1;rounded=0;exitX=1;exitY=0.5;exitDx=0;exitDy=0;entryX=0;entryY=0.5;entryDx=0;entryDy=0;" edge="1" parent="1" source="LtDJ-uMKenuFt8M6Bwa6-10" target="LtDJ-uMKenuFt8M6Bwa6-9">
          <mxGeometry width="50" height="50" relative="1" as="geometry">
            <mxPoint x="570" y="450" as="sourcePoint" />
            <mxPoint x="620" y="400" as="targetPoint" />
          </mxGeometry>
        </mxCell>
        <mxCell id="LtDJ-uMKenuFt8M6Bwa6-50" value="" style="endArrow=classic;startArrow=classic;html=1;rounded=0;entryX=0.25;entryY=1;entryDx=0;entryDy=0;exitX=1;exitY=0.25;exitDx=0;exitDy=0;" edge="1" parent="1" source="LtDJ-uMKenuFt8M6Bwa6-10" target="LtDJ-uMKenuFt8M6Bwa6-8">
          <mxGeometry width="50" height="50" relative="1" as="geometry">
            <mxPoint x="570" y="450" as="sourcePoint" />
            <mxPoint x="620" y="400" as="targetPoint" />
            <Array as="points">
              <mxPoint x="380" y="350" />
            </Array>
          </mxGeometry>
        </mxCell>
        <mxCell id="LtDJ-uMKenuFt8M6Bwa6-51" value="" style="endArrow=classic;startArrow=classic;html=1;rounded=0;entryX=0.75;entryY=1;entryDx=0;entryDy=0;exitX=0;exitY=0.25;exitDx=0;exitDy=0;" edge="1" parent="1" source="LtDJ-uMKenuFt8M6Bwa6-9" target="LtDJ-uMKenuFt8M6Bwa6-8">
          <mxGeometry width="50" height="50" relative="1" as="geometry">
            <mxPoint x="570" y="450" as="sourcePoint" />
            <mxPoint x="620" y="400" as="targetPoint" />
            <Array as="points">
              <mxPoint x="420" y="350" />
            </Array>
          </mxGeometry>
        </mxCell>
        <mxCell id="LtDJ-uMKenuFt8M6Bwa6-52" value="" style="endArrow=classic;startArrow=classic;html=1;rounded=0;exitX=0.75;exitY=0;exitDx=0;exitDy=0;entryX=0;entryY=0.75;entryDx=0;entryDy=0;" edge="1" parent="1" source="LtDJ-uMKenuFt8M6Bwa6-4" target="LtDJ-uMKenuFt8M6Bwa6-9">
          <mxGeometry width="50" height="50" relative="1" as="geometry">
            <mxPoint x="570" y="450" as="sourcePoint" />
            <mxPoint x="620" y="400" as="targetPoint" />
            <Array as="points">
              <mxPoint x="420" y="370" />
            </Array>
          </mxGeometry>
        </mxCell>
        <mxCell id="LtDJ-uMKenuFt8M6Bwa6-53" value="" style="endArrow=classic;startArrow=classic;html=1;rounded=0;exitX=0.25;exitY=0;exitDx=0;exitDy=0;entryX=1;entryY=0.75;entryDx=0;entryDy=0;" edge="1" parent="1" source="LtDJ-uMKenuFt8M6Bwa6-4" target="LtDJ-uMKenuFt8M6Bwa6-10">
          <mxGeometry width="50" height="50" relative="1" as="geometry">
            <mxPoint x="570" y="450" as="sourcePoint" />
            <mxPoint x="620" y="400" as="targetPoint" />
            <Array as="points">
              <mxPoint x="380" y="370" />
            </Array>
          </mxGeometry>
        </mxCell>
        <mxCell id="LtDJ-uMKenuFt8M6Bwa6-54" value="" style="endArrow=classic;startArrow=classic;html=1;rounded=0;entryX=0.5;entryY=1;entryDx=0;entryDy=0;exitX=0.5;exitY=0;exitDx=0;exitDy=0;" edge="1" parent="1" source="LtDJ-uMKenuFt8M6Bwa6-4" target="LtDJ-uMKenuFt8M6Bwa6-8">
          <mxGeometry width="50" height="50" relative="1" as="geometry">
            <mxPoint x="570" y="450" as="sourcePoint" />
            <mxPoint x="620" y="400" as="targetPoint" />
          </mxGeometry>
        </mxCell>
        <mxCell id="LtDJ-uMKenuFt8M6Bwa6-55" value="https request" style="text;html=1;align=center;verticalAlign=middle;whiteSpace=wrap;rounded=0;rotation=-90;" vertex="1" parent="1">
          <mxGeometry x="360" y="390" width="100" height="30" as="geometry" />
        </mxCell>
      </root>
    </mxGraphModel>
  </diagram>
</mxfile>
